<svg id="Layer_2" data-name="Layer 2" xmlns="http://www.w3.org/2000/svg" viewBox="0 0 800 800"><path d="M647.369,435.517c.065,49.522-14.89,99.933-49.733,124.823-35.12,25.051-90.128,24.58-136.11,35.919-45.544,11.457-82.5,34.606-124.369,40.246-41.752,5.2-88.855-7.221-118.615-37.037s-41.74-76.909-53-124.044c-10.986-47.295-20.819-94.514-3.459-128.56s62.194-55.078,101.527-69.612c39.215-14.1,73.367-21.576,115.626-40.015,42.141-18,92.507-47.4,133.667-40.8,41.32,6.881,73,49.647,96.377,95.346S647.464,386.274,647.369,435.517Z" style="fill:#2f1b7c"/><circle cx="502.936" cy="260.903" r="2.867" style="fill:#a9a5fc"/><circle cx="561.673" cy="380.636" r="8.601" style="fill:#a9a5fc"/><circle cx="601.694" cy="465.621" r="2.043" style="fill:#a9a5fc"/><circle cx="279.977" cy="322.303" r="3.322" style="fill:#a9a5fc"/><circle cx="251.178" cy="432.652" r="4.148" style="fill:#a9a5fc"/><circle cx="188.187" cy="471.786" r="3.354" style="fill:#a9a5fc"/><circle cx="290.007" cy="575.577" r="7.562" style="fill:#a9a5fc"/><circle cx="468.397" cy="562.74" r="1.772" style="fill:#a9a5fc"/><ellipse cx="367.467" cy="307.369" rx="31.754" ry="20.025" style="fill:#f4f0ff"/><circle cx="352.451" cy="307.369" r="3.166" style="fill:#8d1c9f"/><circle cx="367.467" cy="307.369" r="3.166" style="fill:#8d1c9f"/><circle cx="382.483" cy="307.369" r="3.166" style="fill:#8d1c9f"/><polygon points="379.431 323.525 389.98 331.804 387.514 319.675 379.431 323.525" style="fill:#f4f0ff"/><path d="M22.978,420.388c4.91,3.639,13.2,8.642,23.694,9.027,20.908.766,27.712-17.625,45.133-20.31,28.932-4.458,40.908,41.535,72.212,42.876,31.817,1.363,41-45.228,77.853-54.159,21.19-5.135,53.195,1.778,101.548,51.9" style="fill:none;stroke:#beb5e2;stroke-linecap:round;stroke-miterlimit:10;stroke-width:5.70422530174255px"/><path d="M462.265,420.312l-6.73-5.607c7.281-10.274,32.654-4.348,40.018-12.8,4.2-7.353-6.893-13.695-12.724-14.5l1.041-8.7c11.574,1.075,27.413,14.7,19.234,27.637C496.777,418.918,471.378,412.975,462.265,420.312Z" style="fill:#d6d2e3"/><path d="M471.182,416.883a7.59,7.59,0,0,0-2.342-7.284,5.487,5.487,0,0,0-1.528-.858c-.648.125-1.287.258-1.91.407a4.779,4.779,0,0,1,2.984,1.022,6.932,6.932,0,0,1,2.031,6.861C470.669,416.98,470.925,416.931,471.182,416.883Z" style="fill:#c3c2cc"/><path d="M500.271,398.351a5.39,5.39,0,0,0-3.92,1.5,7.05,7.05,0,0,1-.8,2.054c-.183.21-.386.405-.59.6l.414.156a5.025,5.025,0,0,1,4.876-3.581,5.947,5.947,0,0,1,4.756,2.77c.077-.329.138-.657.188-.984A6.6,6.6,0,0,0,500.271,398.351Z" style="fill:#c3c2cc"/><path d="M479.681,415.746a7.289,7.289,0,0,0-.548-7.226,5.4,5.4,0,0,0-1.2-1.15l-1.245.13a4.588,4.588,0,0,1,1.864,1.46,6.646,6.646,0,0,1,.289,6.878Z" style="fill:#c3c2cc"/><path d="M458.537,414.31h-.028a5.618,5.618,0,0,0-2.643.67l.617.514a4.871,4.871,0,0,1,2.029-.454h.025a7.041,7.041,0,0,1,5.886,3.916c.216-.108.434-.214.659-.314A7.781,7.781,0,0,0,458.537,414.31Z" style="fill:#c3c2cc"/><path d="M461.09,410.528l.008.012c.046-.029.091-.049.137-.077C461.185,410.483,461.139,410.507,461.09,410.528Z" style="fill:#c3c2cc"/><path d="M493.923,393.134q.348.365.657.746a4.892,4.892,0,0,1,1.8-3.633,5.947,5.947,0,0,1,5.391-1.069c-.225-.3-.46-.592-.7-.882a6.579,6.579,0,0,0-5.157,1.39A5.6,5.6,0,0,0,493.923,393.134Z" style="fill:#c3c2cc"/><path d="M489.984,414.316a7.045,7.045,0,0,0-.42-6.839,5.306,5.306,0,0,0-1.765-1.592q-.589.144-1.2.271a4.533,4.533,0,0,1,2.369,1.74,6.406,6.406,0,0,1,.122,6.593C489.388,414.433,489.688,414.377,489.984,414.316Z" style="fill:#c3c2cc"/><path d="M500.038,410.139a6.815,6.815,0,0,0-2.149-5.763,5.287,5.287,0,0,0-3.6-1.3,11.122,11.122,0,0,1-1.343.9,4.679,4.679,0,0,1,4.459.951,6.185,6.185,0,0,1,1.789,5.843C499.487,410.568,499.769,410.36,500.038,410.139Z" style="fill:#c3c2cc"/><path d="M488.443,384.019a5.975,5.975,0,0,0-.6,4.951c.318.146.636.3.954.465a5.208,5.208,0,0,1,.267-5.037A5.835,5.835,0,0,1,493,381.713c-.319-.176-.64-.342-.963-.5A6.517,6.517,0,0,0,488.443,384.019Z" style="fill:#c3c2cc"/><path d="M483.87,378.71l-.107.9c6.37,1.513,12.194,5.028,15.148,10.936a14.629,14.629,0,0,1-6.569,19.709c-10.407,4.625-22.644,3.76-33.087,7.551l3.01,2.508c9.113-7.337,34.512-1.394,40.839-13.965C511.283,393.412,495.444,379.785,483.87,378.71Z" style="fill:#b6b0c9"/><path d="M470.417,417.031c.252-.051.508-.1.765-.148a9.189,9.189,0,0,0,.123-1.877l-.714.112A8.57,8.57,0,0,1,470.417,417.031Z" style="fill:#a2a1b3"/><path d="M500.415,398.363c-.021.242-.033.486-.065.727a5.954,5.954,0,0,1,4.659,2.761c.077-.329.138-.657.188-.984A6.61,6.61,0,0,0,500.415,398.363Z" style="fill:#a2a1b3"/><path d="M478.84,415.838l.841-.092a8.512,8.512,0,0,0,.6-2.113c-.252.044-.5.088-.758.13A7.88,7.88,0,0,1,478.84,415.838Z" style="fill:#a2a1b3"/><path d="M464.423,418.956c.216-.108.434-.214.659-.314a9.517,9.517,0,0,0-1.615-2.122c-.273.069-.543.144-.814.217A8.69,8.69,0,0,1,464.423,418.956Z" style="fill:#a2a1b3"/><path d="M461.235,410.463c-.05.02-.1.044-.145.065l.008.012C461.144,410.511,461.189,410.491,461.235,410.463Z" style="fill:#a2a1b3"/><path d="M501.768,389.178c-.225-.3-.46-.592-.7-.882a6.855,6.855,0,0,0-3.288.328c.138.207.283.409.414.624A6.208,6.208,0,0,1,501.768,389.178Z" style="fill:#a2a1b3"/><path d="M489.088,414.489c.3-.056.6-.112.9-.173a7.834,7.834,0,0,0,.669-3.371c-.241.093-.482.187-.725.274A7.235,7.235,0,0,1,489.088,414.489Z" style="fill:#a2a1b3"/><path d="M498.305,404.79c-.131.214-.259.43-.4.637a6.344,6.344,0,0,1,1.3,5.343c.288-.2.57-.41.839-.631A6.926,6.926,0,0,0,498.305,404.79Z" style="fill:#a2a1b3"/><path d="M492.032,381.209a6.746,6.746,0,0,0-1.707.84q.368.195.728.4a6.1,6.1,0,0,1,1.942-.738C492.676,381.537,492.355,381.371,492.032,381.209Z" style="fill:#a2a1b3"/><path d="M469.434,424.733c0,4.673-55.6,58.648-59.625,58.964s-38.473-30.992-38.488-35.421,51.964-60.643,56.392-60.836S469.434,419.3,469.434,424.733Z" style="fill:#e5e2ee"/><path d="M463.152,416.181a25.841,25.841,0,0,1-5.118,7.211c-16.712,20.89-33.914,41.775-55.991,55.482,3.824,2.985,6.756,4.9,7.766,4.823,4.022-.316,59.625-54.291,59.625-58.964C469.434,423.326,466.932,420.133,463.152,416.181Z" style="fill:#c8c3d9"/><path d="M386.9,370.69a140.282,140.282,0,0,0-27.124.177c4.587,7.956,4.5,16.476.274,25.494,7.287-.283,12.486,2.5,19.348,2.512C394.351,398.9,404.2,372.434,386.9,370.69Z" style="fill:#ece7fd"/><path d="M362,396.293c4.815-2.346,6.386-23.107,2.938-25.895-1.4-1.133-10.262-.545-12.56.79-5.388,3.131-1.453,23.063,3.955,25.264A10.372,10.372,0,0,0,362,396.293Z" style="fill:#fffffd"/><path d="M356.332,396.452c2.812-1.078,1.074-25.15-3.955-25.264a24.466,24.466,0,0,0-5.808.782c-1.4.461,2.358,24.95,4.233,25.139A15.1,15.1,0,0,0,356.332,396.452Z" style="fill:#ece7fd"/><path d="M350.8,397.109c-1.816,1.292-12.9,3.288-12.9,3.288-7.536,7.888-9.612,9.8-12.146,9.337-2.151-.393-5.47-2.812-1.352-10.187-10.658,2.353-15.9,2.3-18.537-2.611s-1.632-17.353,7.976-20.464,29.812-5.421,32.548-5.149S354.206,394.688,350.8,397.109Z" style="fill:#a692eb"/><path d="M361.949,391.468a36.864,36.864,0,0,1-1.9,4.893c7.287-.283,12.486,2.5,19.348,2.512,5.71.009,10.669-3.849,13.663-8.715C383.055,392.469,372.461,391.317,361.949,391.468Z" style="fill:#d0c4f8"/><path d="M352.7,392.07c1.041,2.2,2.29,3.836,3.631,4.382a10.372,10.372,0,0,0,5.667-.159c1.236-.6,2.256-2.423,3.035-4.837A92.589,92.589,0,0,0,352.7,392.07Z" style="fill:#c7c7c7"/><path d="M350.8,397.109a15.1,15.1,0,0,0,5.53-.657c.745-.286,1.167-2.193,1.3-4.832a62.436,62.436,0,0,0-8.6,1.049C349.666,395.266,350.3,397.059,350.8,397.109Z" style="fill:#d0c4f8"/><path d="M326.558,409.79c2.237-.073,4.611-2.343,11.346-9.393,0,0,11.082-2,12.9-3.288.842-.6,1.164-2.467,1.132-4.939a44.3,44.3,0,0,0-13.776,4.142C333.083,399.358,330.081,404.773,326.558,409.79Z" style="fill:#886de4"/><path d="M306.932,398.487c2.858,3.284,7.935,3.133,17.043,1.152a6.983,6.983,0,0,0,2.031-5.063C320.94,396.828,313.321,399.076,306.932,398.487Z" style="fill:#886de4"/><path d="M380.279,370.244a136.762,136.762,0,0,0-20.5.623,27.123,27.123,0,0,1,1.619,3.314,93.9,93.9,0,0,0,17.642-3.628C379.45,370.428,379.864,370.329,380.279,370.244Z" style="fill:#f4f0ff"/><path d="M364.937,370.4c-1.4-1.133-10.262-.545-12.56.79a5.586,5.586,0,0,0-2.222,3.849,142.957,142.957,0,0,0,16.178-1.527A5.544,5.544,0,0,0,364.937,370.4Z" style="fill:#fffffd"/><path d="M352.377,371.188a24.466,24.466,0,0,0-5.808.782c-.3.1-.364,1.337-.253,3.212,3.033-.1,6.058-.23,9.08-.447C354.588,372.616,353.577,371.215,352.377,371.188Z" style="fill:#f4f0ff"/><path d="M346.393,371.323c-2.736-.272-22.94,2.037-32.548,5.149-6.469,2.1-9.034,8.416-9.217,13.824,2.286-7.56,6.985-13.7,16.274-14.219,9.408-.711,18.634-.62,27.8-.98C347.9,372.873,347.074,371.391,346.393,371.323Z" style="fill:#cabaff"/><path d="M327.752,460.86c-2.952,3.295-1.185,13.874-1.185,13.874-13,9.382-17.076,18.006-13.775,25.34s17.008,8.242,27.91,2.448,12.156-9.376,12.936-12.2c1.157-4.181,1.031-7.447,1.849-9.3s6.391-11.593,5.126-13.637C358.3,463.643,332.911,455.1,327.752,460.86Z" style="fill:#a692eb"/><path d="M327.752,460.86c-4.195,12.888,29.516,19.692,32.861,6.521C363.568,455.747,332.259,447.014,327.752,460.86Z" style="fill:#ece7fd"/><path d="M360.613,467.381c-.474-.766-1.927-1.734-3.967-2.739-2.762,6.86-9.048,12.932-11.018,19.336-1.02,3.059,1.873,8.966,1.724,14.489,4.862-3.531,5.706-6.047,6.286-8.145,1.157-4.181,1.031-7.447,1.849-9.3S361.878,469.425,360.613,467.381Z" style="fill:#886de4"/><path d="M357.872,459.973c-.583,5.147-3.8,9.774-6.872,14.278,4.739-.693,8.592-2.849,9.613-6.87C361.3,464.671,360.129,462.119,357.872,459.973Z" style="fill:#bbb1de"/><path d="M344.179,413.911c-6.515,10.281-15.046,30.978-14.337,35.793s28.714,19.365,34.68,11.919a193.542,193.542,0,0,0,14.454-20.042C391.756,420.823,356.935,393.783,344.179,413.911Z" style="fill:#ece7fd"/><path d="M369.977,411.54c.753,18.219-3.694,37.148-14.37,51.887,3.954.623,7.272.247,8.915-1.8a193.542,193.542,0,0,0,14.454-20.042C385.649,430.743,379.342,418.2,369.977,411.54Z" style="fill:#bbb1de"/><path d="M364.522,461.623c-8.675,3.5-32.558-7.407-34.7-13.793-1.953,1.162-3.914,10.76-2.065,13.03,5.968,7.326,24.31,9.43,32.861,6.521C361.777,466.985,364.44,462.7,364.522,461.623Z" style="fill:#fffffd"/><path d="M358.326,462.2a5.673,5.673,0,0,1,.441,4.987c-.14.28-.3.536-.454.8a19.552,19.552,0,0,0,2.3-.612c1.164-.4,3.827-4.677,3.909-5.758A13.662,13.662,0,0,1,358.326,462.2Z" style="fill:#c7c7c7"/><path d="M340.518,482.518c-4.38-2.19-10.219-2.92-10.219-8.029a76.572,76.572,0,0,1,.351-15.177,5.63,5.63,0,0,0-2.9,1.548c-2.952,3.295-1.185,13.874-1.185,13.874-13,9.382-17.076,18.006-13.775,25.34.015.033.033.063.048.095C313.788,487.2,326.262,477.956,340.518,482.518Z" style="fill:#cabaff"/><path d="M331.019,456.346a8.951,8.951,0,0,0-3.267,4.514c-.968,2.975.086,5.626,2.319,7.782A94.436,94.436,0,0,1,331.019,456.346Z" style="fill:#f4f0ff"/><path d="M329.842,449.7a5.286,5.286,0,0,0,1.792,2.52c1.109-6.872,2.575-13.743,3.6-20.615C331.882,439.532,329.45,447.043,329.842,449.7Z" style="fill:#f4f0ff"/><path d="M329.817,447.83c-1.953,1.162-3.914,10.76-2.065,13.03a13.106,13.106,0,0,0,2.537,2.327c.3-4.16.894-8.321,1.6-12.482A7.93,7.93,0,0,1,329.817,447.83Z" style="fill:#fffffd"/><path d="M367.077,495.537c-1.348,4.536,5.2,13.957,5.2,13.957C364,524.51,364,534.714,370.542,540.3s17.134,2.153,28.107-10.4c9.395-10.744,7.467-14.624,6.931-17.712-.794-4.572-2.409-7.672-2.468-9.842s.88-14.132-1.278-15.53C397.889,484.26,369.432,487.61,367.077,495.537Z" style="fill:#a692eb"/><path d="M367.077,495.537c1.837,14.381,37.545,5.546,34.757-8.72C399.371,474.216,365.1,480.088,367.077,495.537Z" style="fill:#ece7fd"/><path d="M388.542,370.306c-24.16,12.129-38.19,25.123-44.363,43.605s3.069,36.674,17.219,48.513c-.145,4.621-.289,17.038,2.6,21.37s34.652,4.909,38.984-4.332,5.631-16.027,10.973-23.968,29.936-23.776,31.284-31.861-5.583-24.835-19.059-36.77S399.373,364.87,388.542,370.306Z" style="fill:#ece7fd"/><path d="M352.012,406.331c8.374-17.393,23.68-27.549,44.836-37.432a14.6,14.6,0,0,0-8.306,1.407c-24.16,12.129-38.19,25.123-44.363,43.605-4.421,13.239-.932,26.329,6.6,37.042C343.625,436.026,345.536,419.281,352.012,406.331Z" style="fill:#f4f1fe"/><path d="M402.981,479.462c-6.786,7.355-34.869,7.725-39.865,2.531-1.357,2.017,1.135,12.194,3.961,13.544,9.12,4.356,27.818-2,34.757-8.72C402.779,485.9,403.4,480.545,402.981,479.462Z" style="fill:#fffffd"/><path d="M394.534,505.147c3.3,6.6,6.286,15.013,5.836,22.706,7.421-9.206,5.71-12.781,5.21-15.664-.794-4.572-2.409-7.672-2.468-9.842s.88-14.132-1.278-15.53c-.876-.568-2.965-.843-5.7-.843C397.1,492.365,391.339,498.756,394.534,505.147Z" style="fill:#886de4"/><path d="M393.7,499.043c5.361-2.9,9.11-7.229,8.134-12.226-.694-3.548-3.908-5.631-8.126-6.449a29.973,29.973,0,0,1,1.556,2.88C397.9,488.513,394.454,493.778,393.7,499.043Z" style="fill:#bbb1de"/><path d="M395.264,483.248a9.2,9.2,0,0,1,.525,1.29c3.475-1.173,6.141-2.835,7.192-5.076,4.331-9.241,5.631-16.027,10.973-23.968s29.936-23.776,31.284-31.861c.059-.358.1-.739.124-1.131-17.142,13.517-27.425,15.98-45.528,29.21C387.424,461.2,390.885,473.759,395.264,483.248Z" style="fill:#bbb1de"/><path d="M395.761,491.1a28.482,28.482,0,0,0,6.073-4.279c.945-.916,1.562-6.272,1.147-7.355-1.575,1.707-4.3,3.032-7.618,4A11.211,11.211,0,0,1,395.761,491.1Z" style="fill:#c7c7c7"/><path d="M367.1,409.633a1.819,1.819,0,0,1-1.2-.448c-4.323-3.762-9.83-9.532-11.514-15.65a1.825,1.825,0,1,1,3.519-.969c1.142,4.149,4.735,8.943,10.391,13.866a1.824,1.824,0,0,1-1.2,3.2Z" style="fill:#a692eb"/><path d="M369.5,406.88a1.818,1.818,0,0,1-1.2-.448c-4.323-3.762-9.83-9.532-11.514-15.65a1.825,1.825,0,0,1,3.519-.969c1.142,4.149,4.735,8.943,10.391,13.866a1.824,1.824,0,0,1-1.2,3.2Z" style="fill:#fffffd"/><path d="M371.891,404.127a1.816,1.816,0,0,1-1.2-.448c-4.323-3.762-9.83-9.532-11.514-15.65a1.825,1.825,0,1,1,3.518-.969c1.142,4.149,4.736,8.943,10.392,13.866a1.825,1.825,0,0,1-1.2,3.2Z" style="fill:#a692eb"/><path d="M403.948,417.745c-.154,1.452-14.417,16.329-15.76,16.65s-5.183-.066-6.351-.876c2.1-.657,20.249-20.015,20.249-21.833A13.2,13.2,0,0,1,403.948,417.745Z" style="fill:#a7a0bf"/><path d="M402.086,411.679v.007c0,1.818-18.146,21.176-20.249,21.833-1.167-.817-18.8-18.066-18.891-19.986s16.359-19.577,18.943-20.022S401.291,410.643,402.086,411.679Z" style="fill:#fffffd"/><polyline points="378.637 395.825 382.516 399.472 380.072 409.633 392.245 423.578" style="fill:none;stroke:#d2d1d9;stroke-miterlimit:10;stroke-width:0.729949819663208px"/><path d="M388.613,413.4l5.291-5.29.821.82a3.741,3.741,0,0,1-5.291,5.291Z" style="fill:#a7a0bf"/><circle cx="391.256" cy="410.759" r="3.742" style="fill:#fffffd"/><path d="M422.032,449.138a1.817,1.817,0,0,1-1-.3,138.315,138.315,0,0,1-26.769-22.875,1.825,1.825,0,1,1,2.708-2.447,134.752,134.752,0,0,0,26.064,22.272,1.825,1.825,0,0,1-1,3.35Z" style="fill:#a692eb"/><path d="M419.323,451.584a1.824,1.824,0,0,1-1-.3,138.35,138.35,0,0,1-26.769-22.876,1.825,1.825,0,0,1,2.709-2.446,134.711,134.711,0,0,0,26.063,22.271,1.825,1.825,0,0,1-1,3.35Z" style="fill:#fffffd"/><path d="M416.615,454.031a1.818,1.818,0,0,1-1-.3,138.345,138.345,0,0,1-26.769-22.875,1.825,1.825,0,1,1,2.709-2.447,134.653,134.653,0,0,0,26.064,22.271,1.826,1.826,0,0,1-1,3.351Z" style="fill:#a692eb"/><circle cx="354.322" cy="421.323" r="8.856" style="fill:#a692eb"/><circle cx="353.793" cy="421.323" r="7.412" style="fill:#a7a0c1"/><path d="M331.287,442.221c-19.847-6.957-12.6-32.67,23.338-26.309,7.027.982,5.346,12-1.665,10.822-15.623-2.4-20.452,1.8-20.912,3.462-.313,1.128.771,2.175,2.562,2.906C333.294,436.418,332.49,438.49,331.287,442.221Z" style="fill:#fffffd"/><path d="M331.029,425.582c-4.871,3.985-2.486,8.5,1.934,11.772.5-1.345,1.012-2.654,1.647-4.252-1.791-.731-2.875-1.778-2.562-2.906.46-1.663,5.289-5.867,20.912-3.462a5.014,5.014,0,0,0,5.818-3.483C348.93,422.558,338.824,419.736,331.029,425.582Z" style="fill:#c7c7c7"/><path d="M334.052,432.85a6.343,6.343,0,0,1-.873-.515,7.4,7.4,0,0,1-3.621,5.856,5.386,5.386,0,0,1-4.753.368,16.649,16.649,0,0,0,1.675,1.291c.11.006.22.015.329.015a6.428,6.428,0,0,0,3.2-.879A8.383,8.383,0,0,0,334.052,432.85Z" style="fill:#d2d1d9"/><path d="M322.245,430.733a14.15,14.15,0,0,0,9.773.017,1.389,1.389,0,0,1,.03-.554,2.1,2.1,0,0,1,.316-.622.42.42,0,0,0-.135.048c-1.71,1.22-6.684,1.581-9.624.291a3.2,3.2,0,0,1-2-1.936,10.532,10.532,0,0,0-.137,1.531A5.108,5.108,0,0,0,322.245,430.733Z" style="fill:#d2d1d9"/><path d="M353.564,416.416a5.717,5.717,0,0,0-.527-.766c-.45-.07-.893-.131-1.333-.19a4.566,4.566,0,0,1,1.149,1.357,7.693,7.693,0,0,1-.195,7.413,4.382,4.382,0,0,1-3.153,2.062c.621.063,1.256.135,1.918.223a5.413,5.413,0,0,0,1.923-1.845A8.568,8.568,0,0,0,353.564,416.416Z" style="fill:#d2d1d9"/><path d="M345.264,417.723a9.369,9.369,0,0,0-1.36-2.813c-.372,0-.736.008-1.1.016a7.8,7.8,0,0,1,1.661,3.046c1,3.206.721,7.052-1.765,7.864a.41.41,0,0,0-.246.222c.52-.027,1.061-.044,1.629-.048C346.04,424.421,346.222,420.8,345.264,417.723Z" style="fill:#d2d1d9"/><path d="M325.551,420.174a.385.385,0,0,0,.037-.092c-.263.208-.514.421-.756.637.477,1.175,2.23,3.05,5.163,6.024,1.015,1.029,1.979,2.008,2.514,2.642a4.665,4.665,0,0,1,.622-.621c-.567-.662-1.487-1.6-2.513-2.635C328.815,424.3,325.458,420.9,325.551,420.174Z" style="fill:#d2d1d9"/><path d="M338.076,426.615c.563-2.861-2.206-8.494-3.831-10.475l-.079-.093c-.313.08-.618.165-.92.253a19.905,19.905,0,0,1,3.516,6.642c.571,1.793.691,3.186.352,3.915C337.42,426.772,337.737,426.69,338.076,426.615Z" style="fill:#d2d1d9"/><path d="M366.307,458.622c6.045.385,18.916-2.221,22.068-1.9s5.519,1.567,5.442,2.819-19.665-.482-21.59-.1.337,2.183,4.957,3.754c1.643.559,7.4,1.348,7.308,2.792s-4.9,1.636-6.827.577-8.759-6.039-10.011-6.16,4.428,9.048,4.428,9.048S366.134,464.975,366.307,458.622Z" style="fill:#bbb1de"/><path d="M445.24,416.135a146.651,146.651,0,0,1,7.3,27.4c-9.288-2.43-17.855.008-25.784,6.756-1.724-7.426-5.965-11.9-7.869-18.818C414.742,416.405,438.71,399.172,445.24,416.135Z" style="fill:#ece7fd"/><path d="M449.024,427.727c-1.2-4.26-2.527-8.329-3.784-11.592-5.5-14.3-23.405-4.3-26.4,8.225C428.1,416.625,444.494,414.282,449.024,427.727Z" style="fill:#bbb1de"/><path d="M426.291,448.31c1.038-5.5,21.54-12.813,25.3-10.105,1.529,1.1,3.38,10.2,2.668,12.884-1.671,6.3-22.855,7.825-26.566,2.979A10.838,10.838,0,0,1,426.291,448.31Z" style="fill:#fffffd"/><path d="M427.7,454.068c.311-3.132,25.064-8.02,26.566-2.979a25.635,25.635,0,0,1,.814,6.071c-.08,1.538-25.811,4.5-26.518,2.666A15.749,15.749,0,0,1,427.7,454.068Z" style="fill:#ece7fd"/><path d="M427.832,460.252c-.8,2.188.967,13.487.967,13.487-5.876,9.774-7.231,12.4-6.065,14.823.99,2.06,4.344,4.74,10.645-1.447.567,11.4,2.063,16.67,7.746,17.973s17.948-3.141,18.436-13.688-2.726-31.6-3.755-34.283S429.334,456.152,427.832,460.252Z" style="fill:#a692eb"/><path d="M448.983,427.58a129.718,129.718,0,0,0,2.023,15.6c.51.105,1.022.219,1.537.353A132.385,132.385,0,0,0,448.983,427.58Z" style="fill:#bbb1de"/><path d="M451.593,438.205a3.377,3.377,0,0,0-1.5-.51c.784,5.158,1.832,10.323,2.8,15.434a4.24,4.24,0,0,0,1.371-2.041C454.973,448.4,453.122,439.305,451.593,438.205Z" style="fill:#c7c7c7"/><path d="M452.187,449.461c.541,2.81,1.083,5.608,1.569,8.384.819-.244,1.308-.477,1.319-.685a25.65,25.65,0,0,0-.814-6.072A2.826,2.826,0,0,0,452.187,449.461Z" style="fill:#d0c4f8"/><path d="M455.806,457.117c-.172-.45-1.041-.773-2.356-.985,2.655,14.594,4.1,28.637-3.809,40.681-2.415,3.678-7.094,5.21-12.555,5.991a7.466,7.466,0,0,0,4.039,2.283c5.683,1.3,17.948-3.14,18.436-13.687S456.835,459.8,455.806,457.117Z" style="fill:#886de4"/><path d="M394.643,363.159c-1.233-37.877,52.779-64.232,84.67-31.933,27.529,27.882,11.358,80.314-29.335,78.476,3.935,2.8,1.32,11.368-4.4,10.837-21.487-1.994-61.225-29.537-60.792-51.58C384.876,364.476,390.167,360.272,394.643,363.159Z" style="fill:#ece7fd"/><path d="M482.393,390.135c-11.153,11.894-28.746,16.326-45.241,11.551,1.736,5.137,5.832,7.893,8.21,9.482s2.379,4.158,1.368,5.2c-4.743,4.873-27.581-6.971-43.075-21.032a103.093,103.093,0,0,1-18.541-22.478c3.807,21.264,40.228,45.806,60.466,47.684,5.718.53,8.333-8.036,4.4-10.837,24.772,1.119,40.456-17.874,42.727-39.2A42.287,42.287,0,0,1,482.393,390.135Z" style="fill:#bbb1de"/><ellipse cx="461.015" cy="390.362" rx="19.199" ry="13.823" transform="translate(-143.068 390.902) rotate(-40.307)" style="fill:#bbb1de"/><path d="M435.034,314.67c37.541,9.91,42.161,60.834,24.45,75.658-13.155,11.01-51.787,2.7-65.263-31.765C394.221,337.579,411.74,317.072,435.034,314.67Z" style="fill:#9d3cb0"/><path d="M418.887,374.611c-6.076-5.208-.868-14.757-6.076-20.833-3.673-4.9-11.66-2.893-17.27-5.241a39.6,39.6,0,0,0-1.32,10.026c11.816,30.213,42.964,40.325,59.329,34.939-2.32-4.449-4.3-9.485-6.885-13.682C442.324,372.875,427.567,382.424,418.887,374.611Z" style="fill:#8d1c9f"/><path d="M464.9,341.192a88.822,88.822,0,0,1,.6,31.28,19.382,19.382,0,0,0-21.947,18.193A44.046,44.046,0,0,1,422.22,389.4c14.479,7.2,29.882,7.106,37.264.928C470.135,381.414,472.7,359.446,464.9,341.192Z" style="fill:#8d1c9f"/><path d="M452.867,324.17a43.061,43.061,0,0,0-17.833-9.5c-23.294,2.4-40.813,22.909-40.813,43.893a59.777,59.777,0,0,0,4.734,9.512c-1.04-15.622,3.7-29.345,12.9-37.845-1.312,2.657-1.492,5.429-.209,7.651,2.5,4.323,9.551,4.923,15.759,1.339s9.215-9.993,6.719-14.317a7.228,7.228,0,0,0-4.373-3.243C436.552,320.589,444.313,321.283,452.867,324.17Z" style="fill:#dbb7e2"/><path d="M437.225,315.313c-.719-.228-1.446-.447-2.191-.643-23.294,2.4-40.813,22.909-40.813,43.893.073.186.157.36.231.545C397.282,336.245,409.222,319.309,437.225,315.313Z" style="fill:#fff"/><ellipse cx="460.654" cy="389.936" rx="16.978" ry="12.224" transform="translate(-142.879 390.568) rotate(-40.307)" style="fill:#a591ea"/><ellipse cx="462.505" cy="392.118" rx="13.004" ry="9.363" transform="translate(-143.851 392.283) rotate(-40.307)" style="fill:#7f61e3"/></svg>