<?xml version="1.0" standalone="no"?>
<!DOCTYPE svg PUBLIC "-//W3C//DTD SVG 20010904//EN"
 "http://www.w3.org/TR/2001/REC-SVG-20010904/DTD/svg10.dtd">
<svg version="1.0" xmlns="http://www.w3.org/2000/svg"
 width="80.000000pt" height="80.000000pt" viewBox="0 0 80.000000 80.000000"
 preserveAspectRatio="xMidYMid meet">
<metadata>
Created by potrace 1.14, written by Peter Selinger 2001-2017
</metadata>
<g transform="translate(0.000000,80.000000) scale(0.100000,-0.100000)"
fill="#000000" stroke="none">
<path d="M11 786 c-14 -17 -14 -741 0 -768 8 -15 40 -17 386 -17 261 -1 380 3
390 10 10 9 13 88 13 395 l0 384 -25 6 c-27 7 -100 0 -173 -17 -50 -11 -170
-56 -189 -71 -7 -6 -26 -2 -52 12 -23 11 -41 17 -41 13 0 -5 -4 -3 -8 3 -10
15 -115 46 -170 50 -26 2 -47 4 -47 4 0 1 -16 3 -37 6 -22 2 -40 -2 -47 -10z
m154 -34 c-3 -3 -11 0 -18 7 -9 10 -8 11 6 5 10 -3 15 -9 12 -12z m425 -266
c0 -2 -7 -7 -16 -10 -8 -3 -12 -2 -9 4 6 10 25 14 25 6z m144 -364 c3 -5 -1
-9 -9 -9 -8 0 -12 4 -9 9 3 4 7 8 9 8 2 0 6 -4 9 -8z"/>
</g>
</svg>
